<svg width="311" height="24" viewBox="0 0 311 24" fill="none" xmlns="http://www.w3.org/2000/svg">
<path d="M310.66 12L302 3.33975L293.34 12L302 20.6603L310.66 12ZM0.939331 10.9393C0.353546 11.5251 0.353546 12.4749 0.939331 13.0607L10.4853 22.6066C11.0711 23.1924 12.0208 23.1924 12.6066 22.6066C13.1924 22.0208 13.1924 21.0711 12.6066 20.4853L4.12131 12L12.6066 3.51472C13.1924 2.92893 13.1924 1.97919 12.6066 1.3934C12.0208 0.807611 11.0711 0.807611 10.4853 1.3934L0.939331 10.9393ZM302 10.5L2 10.5V13.5L302 13.5V10.5Z" fill="#6E9F57"/>
</svg>
