<svg
    width="128"
    height="128"
    viewBox="0 0 128 128"
    fill="none"
    xmlns="http://www.w3.org/2000/svg"
>
    <path
        d="M116.663 0H11.3371C5.09714 0 0 5.50378 0 12.2719V115.703C0 122.471 5.07429 128 11.3371 128H116.663C122.903 128 128 122.496 128 115.703V12.2719C128 5.50378 122.926 0 116.663 0ZM108.114 12.2719V115.703C108.114 119.744 105.074 123.042 101.349 123.042H95.0857C96.5029 120.984 97.3714 118.48 97.3714 115.703V12.2719C97.3714 9.52005 96.5029 6.99128 95.0857 4.95836H101.349C105.074 4.95836 108.114 8.25567 108.114 12.2719ZM79.7943 123.017C81.2114 120.959 82.08 118.455 82.08 115.678V12.2719C82.08 9.52005 81.2114 6.99128 79.7943 4.95836H86.0572C89.7829 4.95836 92.8229 8.25567 92.8229 12.2719V115.703C92.8229 119.744 89.7829 123.042 86.0572 123.042H79.7943V123.017ZM11.3143 123.017C7.58857 123.017 4.54857 119.72 4.54857 115.678V12.2719C4.54857 8.23087 7.58857 4.95836 11.3143 4.95836H70.7657C74.4914 4.95836 77.5086 8.25567 77.5086 12.2719V115.703C77.5086 119.744 74.4686 123.042 70.7657 123.042H11.3371L11.3143 123.017ZM123.406 115.678C123.406 119.72 120.366 123.017 116.64 123.017H110.377C111.794 120.959 112.663 118.455 112.663 115.678V12.2719C112.663 9.52005 111.794 6.99128 110.377 4.95836H116.64C120.366 4.95836 123.406 8.25567 123.406 12.2719V115.703V115.678Z"
        fill="black"
    />
    <path
        d="M44.4801 47.7239C43.5658 46.7322 42.3544 46.1868 41.0515 46.1868C39.7715 46.1868 38.5372 46.7322 37.623 47.7239L30.0115 55.9795C26.5144 59.7727 26.5144 65.921 30.0115 69.6894C31.2458 71.0281 32.7772 71.9206 34.423 72.3173L34.1487 73.7304C33.8058 75.5402 34.2401 77.3748 35.383 78.8871C36.7315 80.6721 38.903 81.763 41.0515 81.763C43.2001 81.763 45.3715 80.6721 46.7201 78.8871C47.863 77.3748 48.2972 75.5402 47.9544 73.7304L47.6801 72.3173C49.3258 71.9206 50.8572 71.0281 52.0915 69.6894C55.5887 65.8962 55.5887 59.7479 52.0915 55.9795L44.4801 47.7239ZM41.2572 51.2195L48.8687 59.4752C50.583 61.3346 50.583 64.3344 48.8687 66.1937C47.9087 67.235 46.5601 67.7308 45.2115 67.5573C44.4801 67.4581 43.7487 67.7308 43.2458 68.3258C42.743 68.9208 42.5372 69.7142 42.6744 70.5075L43.4744 74.7469C43.4972 74.8709 43.5658 75.2427 43.1772 75.7634C42.2172 77.0278 39.8858 77.0278 38.9258 75.7634C38.5372 75.2427 38.6058 74.8709 38.6287 74.7469L39.4287 70.5075C39.5658 69.7142 39.3601 68.9208 38.8572 68.3258C38.423 67.8052 37.8058 67.5325 37.1887 67.5325C37.0972 67.5325 37.0058 67.5325 36.8915 67.5325C35.543 67.7308 34.1944 67.235 33.2344 66.169C31.5201 64.3096 31.543 61.3098 33.2344 59.4504L40.8458 51.1947C40.8458 51.1947 40.9601 51.0955 41.0515 51.0955L41.2344 51.1699L41.2572 51.2195Z"
        fill="black"
    />
    <path
        d="M14.1714 15.3213C14.6514 14.8007 14.9257 14.0817 14.9257 13.3628C14.9257 12.6438 14.6514 11.9248 14.1714 11.3794C13.6914 10.8588 13.0285 10.5613 12.3657 10.5613C11.7028 10.5613 11.0399 10.8588 10.5599 11.3794C10.0799 11.9 9.80566 12.619 9.80566 13.3628C9.80566 14.1065 10.0799 14.8007 10.5599 15.3213C11.0399 15.8419 11.7028 16.1394 12.3657 16.1394C13.0285 16.1394 13.6914 15.8419 14.1714 15.3213Z"
        fill="black"
    />
    <path
        d="M23.2671 15.3213C23.7471 14.8007 24.0214 14.0817 24.0214 13.3628C24.0214 12.6438 23.7471 11.9248 23.2671 11.3794C22.7871 10.8588 22.1242 10.5613 21.4614 10.5613C20.7985 10.5613 20.1357 10.8588 19.6557 11.3794C19.1757 11.9 18.9014 12.619 18.9014 13.3628C18.9014 14.1065 19.1757 14.8007 19.6557 15.3213C20.6385 16.3873 22.2842 16.3873 23.2899 15.3213H23.2671Z"
        fill="black"
    />
    <path
        d="M58.8344 112.654C58.3544 113.175 58.0801 113.894 58.0801 114.613C58.0801 115.332 58.3544 116.051 58.8344 116.571C59.3144 117.092 59.9772 117.389 60.6401 117.389C61.3029 117.389 61.9658 117.092 62.4458 116.571C62.9258 116.051 63.2001 115.332 63.2001 114.613C63.2001 113.894 62.9258 113.175 62.4458 112.654C61.4401 111.563 59.8172 111.563 58.8115 112.654H58.8344Z"
        fill="black"
    />
    <path
        d="M72.3212 114.638C72.3212 113.894 72.0469 113.2 71.5669 112.679C71.0869 112.158 70.424 111.861 69.7612 111.861C69.0983 111.861 68.4355 112.158 67.9555 112.679C67.4755 113.2 67.2012 113.919 67.2012 114.638C67.2012 115.356 67.4755 116.075 67.9555 116.596C68.9612 117.687 70.584 117.687 71.5897 116.596C72.0697 116.075 72.344 115.356 72.344 114.638H72.3212Z"
        fill="black"
    />
    <path
        d="M70.6977 63.9878C70.6977 46.2617 57.3948 31.8329 41.052 31.8329C24.7091 31.8329 11.4062 46.2617 11.4062 63.9878C11.4062 81.714 24.7091 96.1428 41.052 96.1428C57.3948 96.1428 70.6977 81.714 70.6977 63.9878ZM41.052 91.1844C27.2234 91.1844 15.9777 78.9869 15.9777 63.9878C15.9777 48.9888 27.2234 36.7912 41.052 36.7912C54.8805 36.7912 66.1263 48.9888 66.1263 63.9878C66.1263 78.9869 54.8805 91.1844 41.052 91.1844Z"
        fill="black"
    />
</svg>
