<svg
    width="92"
    height="128"
    viewBox="0 0 92 128"
    fill="none"
    xmlns="http://www.w3.org/2000/svg"
>
    <path
        d="M16.7466 0.227908L11.4923 0.992785C7.63689 1.55161 5.09146 4.92183 6.03937 8.21965L8.99994 18.4822H7.25481C3.27159 18.4823 0 21.3442 0 24.8084C0 28.1767 3.10039 30.9374 6.93321 31.0891L12.1544 113.373C12.3207 115.996 14.2753 118.2 16.9452 119.115V121.674C16.9452 125.138 20.217 128 24.2001 128H67.7999C71.783 128 75.0547 125.138 75.0547 121.674V119.115C77.7247 118.2 79.6793 115.996 79.8456 113.373L85.0668 31.0891C88.8996 30.9372 92 28.1767 92 24.8084C92 21.3442 88.7284 18.4822 84.7452 18.4822H28.57L25.1649 5.17188C24.0065 0.311076 21.9929 -0.489325 16.7466 0.227908ZM17.5506 4.37804C18.9035 4.18205 20.1522 4.92384 20.4497 6.08912L23.6136 18.4822H13.9941L10.7403 7.19565C10.4603 6.22115 11.1572 5.30827 12.2963 5.14311L17.5506 4.37804ZM7.25481 22.6942H84.7452C86.1112 22.6942 87.1572 23.6204 87.1572 24.8084C87.1572 25.9966 86.1112 26.906 84.7452 26.906H7.25481C5.8888 26.906 4.84285 25.9966 4.84285 24.8084C4.84285 23.6204 5.8888 22.6942 7.25481 22.6942ZM11.795 31.1179H80.205L75.0216 113.139C74.9411 114.407 73.7819 115.364 72.3212 115.364H19.6788C18.218 115.364 17.0587 114.407 16.9784 113.139L11.795 31.1179ZM67.7999 111.148C69.0818 111.146 70.1392 110.275 70.2119 109.162L75.0547 37.5551C75.1298 36.3868 74.0954 35.3895 72.7516 35.3341C71.9344 35.3031 71.14 35.2844 70.3727 35.2968C58.8637 35.3979 52.7998 39.8304 47.1516 42.5977C44.1392 44.0735 41.2463 45.1238 37.1963 45.2548C33.1464 45.3856 27.8332 44.5496 20.2889 41.8203C18.6321 41.2236 16.8298 42.3451 16.9452 43.9016L21.7881 109.178C21.868 110.286 22.9234 111.15 24.2001 111.152C38.7334 111.152 53.2666 111.148 67.7999 111.148ZM70.0322 39.9036L67.3554 79.5671C65.5193 78.3941 63.276 77.6874 60.8099 77.6258C60.9772 76.9302 61.0937 76.2205 61.0937 75.487C61.0937 69.6965 55.635 64.9612 48.9771 64.9612C45.4625 64.9612 42.3843 66.5322 40.2373 68.6919C38.8103 70.1274 37.7954 71.8573 37.2436 73.7017C36.3399 73.5131 35.4111 73.3892 34.4438 73.3892C30.2293 73.3892 26.5152 75.2911 24.3467 78.1522L22.0009 46.4148C27.887 48.2069 33.3401 49.5934 37.376 49.4628C42.351 49.3022 46.1975 47.8955 49.5305 46.2627C55.578 43.2998 60.5387 40.1708 70.0322 39.9036ZM48.9771 69.1772C53.0177 69.1772 56.2508 71.9728 56.2509 75.487C56.2509 76.6701 55.8596 77.7545 55.2151 78.6953C51.6315 80.2172 49.0148 83.2043 48.4805 86.7693C47.767 86.5188 47.0278 86.3134 46.2483 86.1894C46.438 85.4523 46.5651 84.6973 46.5651 83.9148C46.5651 80.5026 44.6376 77.4828 41.7176 75.5568C41.9791 74.1008 42.7486 72.5996 43.8978 71.4436C45.3136 70.0194 47.1425 69.1772 48.9771 69.1772ZM34.4438 77.601C38.4845 77.601 41.7175 80.4006 41.7176 83.9148C41.7176 84.7965 41.5068 85.6227 41.1359 86.3787C39.5106 86.7446 38.0308 87.3984 36.7423 88.2749C34.6461 86.775 31.9579 85.8727 29.0476 85.8727C28.5548 85.8727 28.0788 85.9366 27.6005 85.9831C27.342 85.3351 27.189 84.6454 27.189 83.9141C27.189 80.3999 30.4032 77.601 34.4438 77.601ZM60.4694 81.8129C63.6347 81.8129 65.9049 83.3469 66.9392 85.7864L66.4662 92.7827C64.3516 91.2109 61.6442 90.2244 58.6628 90.2244C57.066 90.2244 55.5497 90.5111 54.151 91.0062C53.4452 90.1497 53.3806 88.9896 53.2146 88.1268C53.2146 84.6127 56.4288 81.8129 60.4694 81.8129ZM29.0476 90.0846C30.7849 90.0846 32.3555 90.6124 33.5973 91.4871C32.6315 92.9993 32.0319 94.7083 32.0319 96.5505C32.0319 97.2581 32.1363 97.9446 32.292 98.6154C29.9119 98.8914 27.7785 99.7991 26.0398 101.104L25.2925 91.0141C26.3862 90.4323 27.6598 90.0846 29.0476 90.0846ZM46.5652 100.767C46.5651 103.075 47.4533 105.197 48.9156 106.936H45.747C44.867 103.189 41.6584 100.199 37.5226 99.0513C37.1343 98.2816 36.8747 97.4557 36.8747 96.5505C36.8747 93.0363 40.0936 90.2244 44.1342 90.2244C46.3681 90.2244 48.8658 91.6298 50.4733 93.4363C47.9329 95.0433 46.5652 97.8639 46.5652 100.767ZM58.6628 94.4363C62.6727 94.4363 65.8831 97.2117 65.92 100.867C65.7606 103.976 63.3832 106.355 60.1856 106.936H57.1446C53.8469 106.337 51.4079 103.826 51.4079 100.767C51.4079 97.2524 54.6222 94.4363 58.6628 94.4363ZM33.8905 102.724C37.0784 102.724 39.7374 104.476 40.7291 106.936H27.066C28.0531 104.476 30.7026 102.724 33.8905 102.724ZM21.7881 119.576H70.2119V121.674C70.2119 122.862 69.1657 123.788 67.7999 123.788H24.2001C22.8343 123.788 21.7881 122.862 21.7881 121.674V119.576Z"
        fill="black"
    />
</svg>
