<svg
    width="128"
    height="128"
    viewBox="0 0 128 128"
    fill="none"
    xmlns="http://www.w3.org/2000/svg"
>
    <g clip-path="url(#clip0_88_79)">
        <path
            fill-rule="evenodd"
            clip-rule="evenodd"
            d="M85.3333 71.1111H92.4444C92.4444 86.8205 79.7094 99.5556 64 99.5556C48.2906 99.5556 35.5556 86.8205 35.5556 71.1111H42.6667C42.6667 82.8932 52.2179 92.4444 64 92.4444C75.7821 92.4444 85.3333 82.8932 85.3333 71.1111ZM64 128C99.3462 128 128 99.3462 128 64C128 28.6538 99.3462 0 64 0C28.6538 0 0 28.6538 0 64C0 99.3462 28.6538 128 64 128ZM64 120.889C95.4189 120.889 120.889 95.4189 120.889 64C120.889 32.5811 95.4189 7.11111 64 7.11111C32.5811 7.11111 7.11111 32.5811 7.11111 64C7.11111 95.4189 32.5811 120.889 64 120.889ZM42.6667 56.8889C46.594 56.8889 49.7778 53.7051 49.7778 49.7778C49.7778 45.8504 46.594 42.6667 42.6667 42.6667C38.7393 42.6667 35.5556 45.8504 35.5556 49.7778C35.5556 53.7051 38.7393 56.8889 42.6667 56.8889ZM85.3333 56.8889C89.2607 56.8889 92.4444 53.7051 92.4444 49.7778C92.4444 45.8504 89.2607 42.6667 85.3333 42.6667C81.406 42.6667 78.2222 45.8504 78.2222 49.7778C78.2222 53.7051 81.406 56.8889 85.3333 56.8889Z"
            fill="black"
        />
    </g>
    <defs>
        <clipPath id="clip0_88_79">
            <rect width="128" height="128" fill="white" />
        </clipPath>
    </defs>
</svg>
