<svg width="128" height="128" viewBox="0 0 128 128" fill="none" xmlns="http://www.w3.org/2000/svg">
<path d="M24.9344 7.07155L34.1504 20.898H15.36L58.2912 73.5387V125.836C46.8736 125.942 37.9392 126.786 37.9392 127.842C37.9392 127.894 37.9648 127.947 38.016 128H82.7136C82.7648 127.947 82.7904 127.894 82.7904 127.842C82.7904 126.786 73.856 125.942 62.4384 125.836V73.565L105.37 20.9244H38.7072L28.0576 4.88148C26.1632 2.03176 23.0144 0.31665 19.6608 0.31665H0V4.22182H19.6352C21.76 4.22182 23.7312 5.27728 24.9344 7.07155ZM96.7168 25.067L89.4464 33.9856H47.4112L41.472 25.067H96.7168ZM36.9152 25.067L42.8544 33.9856H36.0704L62.7712 66.731L60.3904 69.6599L24.0384 25.067H36.9152Z" fill="black"/>
<path d="M109.312 34.5925C117.529 34.5925 124.211 27.7056 124.211 19.2356C124.211 10.7656 117.529 3.87879 109.312 3.87879C101.376 3.87879 94.899 10.2907 94.4382 18.3385H90.6494C91.1102 8.12698 99.3022 0 109.312 0C119.603 0 128 8.62833 128 19.262C128 29.8957 119.629 38.524 109.312 38.524C104.934 38.524 100.915 36.9672 97.7406 34.355L100.173 31.3733C102.707 33.3787 105.881 34.5925 109.312 34.5925Z" fill="black"/>
</svg>
