<svg width="150" height="128" viewBox="0 0 150 128" fill="none" xmlns="http://www.w3.org/2000/svg">
<path d="M145.312 45.76C145.27 40.5921 143.42 35.5527 140.001 31.2871C136.582 27.0215 131.749 23.7238 126.12 21.8163C120.491 19.9088 114.324 19.4783 108.406 20.5799C102.489 21.6816 97.0923 24.2652 92.9062 28H57.0938C52.9077 24.2652 47.5106 21.6816 41.5935 20.5799C35.6764 19.4783 29.5087 19.9088 23.88 21.8163C18.2514 23.7238 13.418 27.0215 9.9988 31.2871C6.57962 35.5527 4.73025 40.5921 4.6875 45.76C1.76295 61.7628 0.196379 77.9248 0 94.12C0 103.8 4.6875 110.12 13.6875 111.56C15.3534 111.851 17.0495 111.999 18.75 112C22.7734 112.064 26.7091 110.993 29.9466 108.953C33.1841 106.914 35.5426 104.02 36.6562 100.72C38.4844 96.32 41.7656 90.24 43.7812 86.56C46.2729 87.5279 48.9827 88.0184 51.7202 87.9971C54.4577 87.9758 57.1566 87.4432 59.6271 86.4367C62.0976 85.4303 64.2799 83.9744 66.0207 82.1714C67.7614 80.3683 69.0183 78.2619 69.7031 76H80.2969C80.9831 78.2567 82.2389 80.3581 83.9765 82.1573C85.714 83.9564 87.8914 85.4098 90.3561 86.4156C92.8208 87.4215 95.5133 87.9556 98.2453 87.9806C100.977 88.0055 103.683 87.5207 106.172 86.56C108.188 90.2 111.469 96.28 113.297 100.72C114.413 104.027 116.778 106.926 120.025 108.966C123.272 111.006 127.219 112.073 131.25 112C132.966 112.002 134.678 111.854 136.359 111.56C145.312 110 150 103.8 150 94.12C149.804 77.9248 148.237 61.7628 145.312 45.76ZM32.2969 99.4C31.7915 100.942 30.9295 102.383 29.7617 103.636C28.5938 104.89 27.1437 105.931 25.4968 106.699C23.8499 107.467 22.0395 107.946 20.1723 108.108C18.3052 108.269 16.419 108.11 14.625 107.64C6.42187 106.16 4.6875 99.48 4.6875 94.12C4.80004 81.7087 5.77047 69.3139 7.59375 57C9.86976 61.1785 13.4024 64.7678 17.8322 67.4026C22.262 70.0374 27.4308 71.6237 32.8125 72C32.8213 74.3901 33.4574 76.7481 34.6741 78.9008C35.8909 81.0535 37.6573 82.9463 39.8438 84.44C37.5 88.5201 34.2188 94.72 32.2969 99.4ZM51.5625 84C47.8329 84 44.256 82.7358 41.6188 80.4853C38.9816 78.2349 37.5 75.1826 37.5 72C37.4499 71.4275 37.4499 70.8526 37.5 70.28V68H35.1562C29.4076 68.0002 23.8238 66.3608 19.2921 63.3424C14.7605 60.324 11.5411 56.0998 10.1455 51.341C8.7499 46.5822 9.25817 41.5619 11.5896 37.0779C13.9209 32.5939 17.9417 28.9034 23.0128 26.593C28.0839 24.2825 33.9145 23.4847 39.578 24.3261C45.2414 25.1676 50.4128 27.6002 54.2704 31.2373C58.1279 34.8744 60.4503 39.5073 60.8684 44.3999C61.2866 49.2924 59.7765 54.1639 56.5781 58.2401L55.0781 60L57.5625 61C60.5576 62.1114 63.0061 64.0777 64.4876 66.5616C65.969 69.0454 66.3912 71.8918 65.6815 74.6122C64.9718 77.3326 63.1746 79.7575 60.5983 81.4705C58.022 83.1835 54.8273 84.0778 51.5625 84ZM70.3125 72C70.3096 69.3371 69.5278 66.7169 68.0381 64.3769C66.5483 62.037 64.3977 60.0514 61.7812 58.6C64.4713 54.5152 65.8134 49.8845 65.6648 45.2006C65.5162 40.5167 63.8825 35.9547 60.9375 32H89.0625C86.0886 35.9401 84.4221 40.4945 84.2406 45.1785C84.059 49.8625 85.369 54.5009 88.0312 58.6C85.4495 60.0699 83.3357 62.0636 81.8794 64.4023C80.4232 66.7411 79.67 69.3517 79.6875 72H70.3125ZM84.375 72C84.382 69.7228 85.1483 67.4943 86.5843 65.5748C88.0202 63.6553 90.0666 62.1241 92.4844 61.16L94.9219 60L93.4219 58.0801C90.2699 53.9861 88.8092 49.1116 89.2713 44.2291C89.7334 39.3466 92.0918 34.7353 95.9728 31.126C99.8538 27.5168 105.035 25.1161 110.696 24.3043C116.357 23.4925 122.174 24.3161 127.224 26.6446C132.275 28.9731 136.27 32.6733 138.577 37.1588C140.884 41.6442 141.37 46.6584 139.96 51.4066C138.549 56.1548 135.321 60.3654 130.789 63.3712C126.256 66.377 120.678 68.006 114.938 68H111.937L112.5 70.28C112.55 70.8526 112.55 71.4275 112.5 72C112.5 75.1826 111.018 78.2349 108.381 80.4853C105.744 82.7358 102.167 84 98.4375 84C94.7079 84 91.131 82.7358 88.4938 80.4853C85.8566 78.2349 84.375 75.1826 84.375 72ZM135.375 107.64C133.581 108.11 131.695 108.269 129.828 108.108C127.961 107.946 126.15 107.467 124.503 106.699C122.856 105.931 121.406 104.89 120.238 103.636C119.07 102.383 118.208 100.942 117.703 99.4C115.781 94.72 112.5 88.5201 110.156 84.44C112.343 82.9463 114.109 81.0535 115.326 78.9008C116.543 76.7481 117.179 74.3901 117.188 72C122.561 71.6353 127.725 70.0626 132.155 67.4419C136.584 64.8212 140.121 61.246 142.406 57.0801C144.225 69.3675 145.195 81.7355 145.312 94.12C145.312 99.48 143.578 106.16 135.375 107.64Z" fill="black"/>
<path d="M42.1875 52H51.5625V40H42.1875V32H28.125V40H18.75V52H28.125V60H42.1875V52ZM37.5 56H32.8125V48H23.4375V44H32.8125V36H37.5V44H46.875V48H37.5V56Z" fill="black"/>
<path d="M114.844 40C116.234 40 117.594 39.6481 118.75 38.9888C119.906 38.3295 120.808 37.3925 121.34 36.2961C121.872 35.1997 122.011 33.9933 121.74 32.8295C121.469 31.6656 120.799 30.5965 119.816 29.7574C118.832 28.9182 117.579 28.3468 116.215 28.1153C114.852 27.8838 113.438 28.0026 112.153 28.4567C110.868 28.9109 109.77 29.6799 108.997 30.6666C108.225 31.6533 107.812 32.8133 107.812 34C107.812 35.5913 108.553 37.1174 109.872 38.2426C111.191 39.3679 112.979 40 114.844 40ZM114.844 32C115.307 32 115.76 32.1173 116.146 32.3371C116.531 32.5568 116.832 32.8692 117.009 33.2346C117.186 33.6001 117.233 34.0022 117.142 34.3902C117.052 34.7781 116.829 35.1345 116.501 35.4142C116.173 35.6939 115.756 35.8844 115.301 35.9616C114.846 36.0387 114.375 35.9991 113.947 35.8478C113.519 35.6964 113.153 35.44 112.895 35.1111C112.637 34.7822 112.5 34.3956 112.5 34C112.5 33.4696 112.747 32.9609 113.186 32.5858C113.626 32.2107 114.222 32 114.844 32Z" fill="black"/>
<path d="M114.844 64C116.234 64 117.594 63.6481 118.75 62.9888C119.906 62.3295 120.808 61.3925 121.34 60.2961C121.872 59.1997 122.011 57.9933 121.74 56.8295C121.469 55.6656 120.799 54.5965 119.816 53.7574C118.832 52.9182 117.579 52.3468 116.215 52.1153C114.852 51.8838 113.438 52.0026 112.153 52.4567C110.868 52.9109 109.77 53.6799 108.997 54.6666C108.225 55.6533 107.812 56.8133 107.812 58C107.812 59.5913 108.553 61.1174 109.872 62.2426C111.191 63.3679 112.979 64 114.844 64ZM114.844 56C115.307 56 115.76 56.1173 116.146 56.3371C116.531 56.5568 116.832 56.8692 117.009 57.2346C117.186 57.6001 117.233 58.0022 117.142 58.3902C117.052 58.7781 116.829 59.1345 116.501 59.4142C116.173 59.6939 115.756 59.8844 115.301 59.9616C114.846 60.0387 114.375 59.9991 113.947 59.8478C113.519 59.6964 113.153 59.44 112.895 59.1111C112.637 58.7822 112.5 58.3956 112.5 58C112.5 57.4696 112.747 56.9609 113.186 56.5858C113.626 56.2107 114.222 56 114.844 56Z" fill="black"/>
<path d="M100.781 52C102.172 52 103.531 51.6481 104.688 50.9888C105.844 50.3295 106.745 49.3925 107.277 48.2961C107.809 47.1997 107.949 45.9933 107.677 44.8295C107.406 43.6656 106.736 42.5965 105.753 41.7574C104.77 40.9182 103.517 40.3468 102.153 40.1153C100.789 39.8838 99.3753 40.0026 98.0905 40.4567C96.8057 40.9109 95.7076 41.6799 94.935 42.6666C94.1624 43.6533 93.75 44.8133 93.75 46C93.75 47.5913 94.4908 49.1174 95.8094 50.2426C97.128 51.3679 98.9164 52 100.781 52ZM100.781 44C101.245 44 101.698 44.1173 102.083 44.3371C102.469 44.5568 102.769 44.8692 102.947 45.2346C103.124 45.6001 103.17 46.0022 103.08 46.3902C102.99 46.7781 102.766 47.1345 102.439 47.4142C102.111 47.6939 101.693 47.8844 101.238 47.9616C100.784 48.0387 100.313 47.9991 99.8843 47.8478C99.4561 47.6964 99.09 47.44 98.8325 47.1111C98.575 46.7822 98.4375 46.3956 98.4375 46C98.4375 45.4696 98.6844 44.9609 99.124 44.5858C99.5635 44.2107 100.16 44 100.781 44Z" fill="black"/>
<path d="M128.906 52C130.297 52 131.656 51.6481 132.813 50.9888C133.969 50.3295 134.87 49.3925 135.402 48.2961C135.934 47.1997 136.074 45.9933 135.802 44.8295C135.531 43.6656 134.861 42.5965 133.878 41.7574C132.895 40.9182 131.642 40.3468 130.278 40.1153C128.914 39.8838 127.5 40.0026 126.216 40.4567C124.931 40.9109 123.833 41.6799 123.06 42.6666C122.287 43.6533 121.875 44.8133 121.875 46C121.875 47.5913 122.616 49.1174 123.934 50.2426C125.253 51.3679 127.041 52 128.906 52ZM128.906 44C129.37 44 129.823 44.1173 130.208 44.3371C130.594 44.5568 130.894 44.8692 131.072 45.2346C131.249 45.6001 131.295 46.0022 131.205 46.3902C131.115 46.7781 130.891 47.1345 130.564 47.4142C130.236 47.6939 129.818 47.8844 129.363 47.9616C128.909 48.0387 128.438 47.9991 128.009 47.8478C127.581 47.6964 127.215 47.44 126.957 47.1111C126.7 46.7822 126.562 46.3956 126.562 46C126.562 45.4696 126.809 44.9609 127.249 44.5858C127.689 44.2107 128.285 44 128.906 44Z" fill="black"/>
<path d="M51.5625 64C49.7083 64 47.8957 64.4692 46.354 65.3482C44.8123 66.2273 43.6107 67.4767 42.9011 68.9385C42.1916 70.4003 42.0059 72.0089 42.3676 73.5607C42.7294 75.1126 43.6223 76.538 44.9334 77.6569C46.2445 78.7757 47.915 79.5376 49.7335 79.8463C51.5521 80.155 53.4371 79.9965 55.1502 79.391C56.8632 78.7855 58.3274 77.7602 59.3575 76.4446C60.3877 75.129 60.9375 73.5823 60.9375 72C60.9375 69.8783 59.9498 67.8434 58.1916 66.3431C56.4335 64.8429 54.0489 64 51.5625 64ZM51.5625 76C50.6354 76 49.7291 75.7654 48.9583 75.3259C48.1874 74.8864 47.5866 74.2616 47.2318 73.5307C46.877 72.7998 46.7842 71.9956 46.9651 71.2196C47.1459 70.4437 47.5924 69.731 48.2479 69.1716C48.9035 68.6122 49.7387 68.2312 50.648 68.0769C51.5573 67.9225 52.4998 68.0017 53.3563 68.3045C54.2129 68.6072 54.945 69.1199 55.46 69.7777C55.9751 70.4355 56.25 71.2089 56.25 72C56.25 73.0609 55.7561 74.0783 54.8771 74.8284C53.998 75.5786 52.8057 76 51.5625 76Z" fill="black"/>
<path d="M98.4375 64C96.5833 64 94.7707 64.4692 93.229 65.3482C91.6873 66.2273 90.4857 67.4767 89.7761 68.9385C89.0666 70.4003 88.8809 72.0089 89.2426 73.5607C89.6044 75.1126 90.4973 76.538 91.8084 77.6569C93.1195 78.7757 94.79 79.5376 96.6085 79.8463C98.4271 80.155 100.312 79.9965 102.025 79.391C103.738 78.7855 105.202 77.7602 106.233 76.4446C107.263 75.129 107.813 73.5823 107.813 72C107.813 69.8783 106.825 67.8434 105.067 66.3431C103.308 64.8429 100.924 64 98.4375 64ZM98.4375 76C97.5104 76 96.6041 75.7654 95.8333 75.3259C95.0624 74.8864 94.4616 74.2616 94.1068 73.5307C93.752 72.7998 93.6592 71.9956 93.8401 71.2196C94.0209 70.4437 94.4674 69.731 95.1229 69.1716C95.7785 68.6122 96.6137 68.2312 97.523 68.0769C98.4323 67.9225 99.3748 68.0017 100.231 68.3045C101.088 68.6072 101.82 69.1199 102.335 69.7777C102.85 70.4355 103.125 71.2089 103.125 72C103.125 73.0609 102.631 74.0783 101.752 74.8284C100.873 75.5786 99.6807 76 98.4375 76Z" fill="black"/>
</svg>
